<svg width="180" height="180" viewBox="0 0 180 180" fill="none" xmlns="http://www.w3.org/2000/svg">
<path d="M101.821 26.3584L25.4538 102.726C21.9391 106.241 21.9391 111.939 25.4538 115.454C28.9685 118.969 34.667 118.969 38.1817 115.454L114.549 39.0863C118.064 35.5716 118.064 29.8731 114.549 26.3583C111.035 22.8436 105.336 22.8436 101.821 26.3584Z" fill="#3A57E8"/>
<path d="M140.001 64.538L63.6336 140.906C60.1189 144.42 60.1189 150.119 63.6336 153.633C67.1483 157.148 72.8468 157.148 76.3615 153.633L152.729 77.2659C156.244 73.7512 156.244 68.0527 152.729 64.538C149.214 61.0233 143.516 61.0233 140.001 64.538Z" fill="#3A57E8"/>
<path d="M114.456 140.823L76.2723 102.639C72.7576 99.1246 67.0591 99.1246 63.5444 102.639C60.0296 106.154 60.0296 111.853 63.5444 115.367L101.728 153.551C105.243 157.066 110.941 157.066 114.456 153.551C117.971 150.036 117.971 144.338 114.456 140.823Z" fill="#3A57E8"/>
<path d="M152.736 102.735L76.3687 26.3679C72.854 22.8532 67.1555 22.8531 63.6408 26.3679C60.1261 29.8826 60.1261 35.5811 63.6408 39.0958L140.008 115.463C143.523 118.978 149.222 118.978 152.736 115.463C156.251 111.949 156.251 106.25 152.736 102.735Z" fill="#3A57E8"/>
</svg>
